# AST/ASF file generated using VICON BodyLanguage
# -----------------------------------------------
:version 1.10
:name VICON
:units
  mass 1.0
  length 0.45
  angle deg
:documentation
   .ast/.asf automatically generated from VICON data using
   VICON BodyBuilder and BodyLanguage model FoxedUp or BRILLIANT.MOD
:root
   order TX TY TZ RX RY RZ
   axis XYZ
   position 0 0 0  
   orientation 0 0 0 
:bonedata
  begin
     id 1 
     name lhipjoint
     direction 0.714689 -0.624256 0.315473 
     length 2.45343 
     axis 0 0 0  XYZ
  end
  begin
     id 2 
     name lfemur
     direction 0.34202 -0.939693 0  
     length 6.59069  
     axis 0 0 20  XYZ
    dof rx ry rz
    limits (-160.0 20.0)
           (-70.0 70.0)
           (-60.0 70.0)
  end
  begin
     id 3 
     name ltibia
     direction 0.34202 -0.939693 0   
     length 6.73476   
     axis 0 0 20   XYZ
    dof rx
    limits (-10.0 170.0)
  end
  begin
     id 4 
     name lfoot
     direction 0.0718085 -0.197292 0.977711   
     length 1.52607   
     axis -90 7.62852e-016 20   XYZ
    dof rx rz
    limits (-45.0 90.0)
           (-70.0 20.0)
  end
  begin
     id 5 
     name ltoes
     direction 1.53553e-011 -4.22024e-011 1   
     length 0.777832   
     axis -90 7.62852e-016 20   XYZ
    dof rx
    limits (-90.0 20.0)
  end
  begin
     id 6 
     name rhipjoint
     direction -0.727419 -0.612432 0.309497   
     length 2.50079  
     axis 0 0 0  XYZ 
  end
  begin
     id 7 
     name rfemur
     direction -0.34202 -0.939693 0   
     length 6.51665   
     axis 0 0 -20   XYZ
    dof rx ry rz
    limits (-160.0 20.0)
           (-70.0 70.0)
           (-70.0 60.0)
  end
  begin
     id 8 
     name rtibia
     direction -0.34202 -0.939693 0   
     length 6.48919   
     axis 0 0 -20   XYZ
    dof rx
    limits (-10.0 170.0)
 end
 begin
     id 9 
     name rfoot
     direction -0.112205 -0.308282 0.944655   
     length 1.68717  
     axis -90 -7.62852e-016 -20   XYZ
    dof rx rz
    limits (-45.0 90.0)
           (-20.0 70.0)
  end
  begin
     id 10 
     name rtoes
     direction -1.53583e-011 -4.21993e-011 1   
     length 0.846859   
     axis -90 -7.62852e-016 -20   XYZ
    dof rx
    limits (-90.0 20.0)
  end
  begin
     id 11 
     name lowerback
     direction -0.00119603 0.996364 -0.0851956   
     length 1.67242   
     axis 0 0 0   XYZ
    dof rx ry rz
    limits (-20.0 45.0)
           (-30.0 30.0)
           (-30.0 30.0)
  end
  begin
     id 12 
     name upperback
     direction -0.00531001 0.998318 0.0577248   
     length 1.64819   
     axis 0 0 0   XYZ
    dof rx ry rz
    limits (-20.0 45.0)
           (-30.0 30.0)
           (-30.0 30.0)
  end
  begin
     id 13 
     name thorax
     direction -0.00653676 0.995132 0.0983291   
     length 1.67429   
     axis 0 0 0   XYZ
    dof rx ry rz
    limits (-20.0 45.0)
           (-30.0 30.0)
           (-30.0 30.0)
  end
  begin
     id 14 
     name lowerneck
     direction 0.0141424 0.999886 0.00525412   
     length 1.59623   
     axis 0 0 0   XYZ
    dof rx ry rz
    limits (-20.0 45.0)
           (-30.0 30.0)
           (-30.0 30.0)
  end
  begin
     id 15 
     name upperneck
     direction -0.0640064 0.987178 -0.146232   
     length 1.59576   
     axis 0 0 0   XYZ
    dof rx ry rz
    limits (-20.0 45.0)
           (-30.0 30.0)
           (-30.0 30.0)
  end
  begin
     id 16
     name head
     direction -0.0222942 0.998496 -0.0500859  
     length 1.60959  
     axis 0 0 0   XYZ
    dof rx ry rz
    limits (-20.0 45.0)
           (-30.0 30.0)
           (-30.0 30.0)
  end
  begin
     id 17 
     name lclavicle
     direction 0.908549 0.392612 0.142806  
     length 2.80649  
     axis 0 0 0   XYZ
    dof ry rz
    limits (-20.0 10.0)
           (0.0 20.0)
  end
  begin
     id 18 
     name lhumerus
     direction 1 -4.48968e-011 1.08832e-028   
     length 4.2884   
     axis -180 -30 -90   XYZ
    dof rx ry rz
    limits (-60.0 90.0)
           (-90.0 90.0)
           (-90.0 90.0)
  end
  begin
     id 19
     name lradius
     direction 1 -4.48952e-011 -3.02642e-028   
     length 3.06552   
     axis -180 -30 -90   XYZ
    dof rx
    limits (-10.0 170.0)
  end
  begin
     id 20
     name lwrist
     direction 1 -4.49014e-011 1.58672e-027   
     length 1.53276   
     axis -1.65735e-015 90 90   XYZ
    dof ry
    limits (-180.0 0.0)
 end
  begin
     id 21 
     name lhand
     direction 1 -4.48928e-011 3.17344e-027   
     length 0.753045   
     axis -2.02492e-015 90 90   XYZ
    dof rx rz
    limits (-90.0 90.0)
           (-45.0 45.0)
  end
  begin
     id 22 
     name lfingers
     direction 1 -4.48958e-011 6.34687e-027   
     length 0.607124   
     axis -4.04985e-015 90 90   XYZ
    dof rx
    limits (0.0 90.0)
  end
  begin
     id 23
     name lthumb
     direction 0.707107 -6.34905e-011 0.707107   
     length 0.871712   
     axis -90 45 2.85299e-015   XYZ
    dof rx rz
    limits (-45.0 45.0)
           (-45.0 45.0)
  end
  begin
     id 24 
     name rclavicle
     direction -0.885098 0.45949 0.0739604   
     length 2.9478  
     axis 0 0 0   XYZ 
    dof ry rz
    limits (-10.0 20.0)
           (-20.0 0.0)
  end
  begin
     id 25 
     name rhumerus
     direction -1 -4.4898e-011 -2.61739e-027  
     length 4.52172   
     axis -180 30 90   XYZ
    dof rx ry rz
    limits (-90.0 60.0)
           (-90.0 90.0)
           (-90.0 90.0)
  end
  begin
     id 26 
     name rradius
     direction -1 -4.48945e-011 9.02552e-028   
     length 2.8914   
     axis -180 30 90   XYZ
    dof rx
    limits (-10.0 170.0)
  end
  begin
     id 27 
     name rwrist
     direction -1 -4.49018e-011 1.58672e-027   
     length 1.4457   
     axis -1.65735e-015 -90 -90   XYZ
    dof ry
    limits (-180.0 0.0)
  end
  begin
     id 28
     name rhand
     direction -1 -4.48825e-011 3.17344e-027   
     length 0.680541   
     axis -2.02492e-015 -90 -90   XYZ
    dof rx rz
    limits (-90.0 90.0)
           (-45.0 45.0)
  end
  begin
     id 29
     name rfingers
     direction -1 -4.49067e-011 6.34687e-027   
     length 0.54867   
     axis -4.04985e-015 -90 -90   XYZ
    dof rx
    limits (0.0 90.0)
  end
  begin
     id 30
     name rthumb
     direction -0.707107 -6.34833e-011 0.707107   
     length 0.787783   
     axis -90 -45 -2.85299e-015   XYZ
    dof rx rz
    limits (-45.0 45.0)
           (-45.0 45.0)
  end
:hierarchy
  begin
    root lhipjoint rhipjoint lowerback
    lhipjoint lfemur
    lfemur ltibia
    ltibia lfoot
    lfoot ltoes
    rhipjoint rfemur
    rfemur rtibia
    rtibia rfoot
    rfoot rtoes
    lowerback upperback
    upperback thorax
    thorax lowerneck lclavicle rclavicle
    lowerneck upperneck
    upperneck head
    lclavicle lhumerus
    lhumerus lradius
    lradius lwrist
    lwrist lhand lthumb
    lhand lfingers
    rclavicle rhumerus
    rhumerus rradius
    rradius rwrist
    rwrist rhand rthumb
    rhand rfingers
  end

#!OML:ASF E:\emotionWalksFemale\Project 1\Capture day 1\Session 1\Female1.ASF
:FULLY-SPECIFIED
:DEGREES
1
root 8.57071 15.0863 42.0294 -179.145 -9.73283 -178.974
lowerback 7.1608 1.38815 0.638009
upperback -3.32876 1.84365 -0.729394
thorax -7.47155 0.839161 -1.3715
lowerneck -6.53685 6.94575 1.79141
upperneck 22.4272 7.33763 4.39695
head 7.89106 3.59763 1.72086
rclavicle -1.37286e-014 -7.95139e-016
rhumerus -56.9884 27.3254 -109.329
rradius 48.8687
rwrist -27.8351
rhand 0.88686 -63.3521
rfingers 7.12502
rthumb -153.56 -88.4719
lclavicle -1.37286e-014 -7.95139e-016
lhumerus -41.8142 -10.0956 91.494
lradius 37.2859
lwrist -16.1624
lhand -6.48666 -37.5683
lfingers 7.12502
lthumb 19.3645 -8.51244
rfemur -9.48607 2.34696 22.2829
rtibia 30.8476
rfoot -24.8507 -22.6504
rtoes 4.1043
lfemur -13.7115 -18.1462 -22.351
ltibia 33.5272
lfoot -24.5151 13.8548
ltoes -29.8523
2
root 8.57045 15.0948 42.0315 -179.041 -9.36643 -178.804
lowerback 7.12773 1.49541 0.770281
upperback -3.39423 1.99947 -0.724188
thorax -7.51409 0.907677 -1.4613
lowerneck -6.43735 6.89024 1.84538
upperneck 22.3157 7.26622 4.36769
head 7.84081 3.56553 1.68985
rclavicle 1.36664e-014 7.55382e-015
rhumerus -57.0161 27.2852 -109.411
rradius 48.8286
rwrist -27.835
rhand 1.26825 -63.5847
rfingers 7.12502
rthumb -153.195 -88.2948
lclavicle 1.36664e-014 7.55382e-015
lhumerus -41.8956 -10.141 91.489
lradius 37.2474
lwrist -16.0716
lhand -5.98999 -37.5511
lfingers 7.12502
lthumb 19.842 -8.54391
rfemur -9.60703 2.66183 22.4705
rtibia 30.6605
rfoot -24.5705 -22.9066
rtoes 3.78086
lfemur -13.846 -18.1803 -22.1309
ltibia 33.5951
lfoot -24.8898 13.6638
ltoes -28.6963
3
root 8.56953 15.0983 42.0334 -178.835 -9.01652 -178.731
lowerback 6.93097 1.59278 0.805522
upperback -3.4487 2.12968 -0.722941
thorax -7.45334 0.969155 -1.49132
lowerneck -6.55114 6.89906 1.63242
upperneck 22.4569 7.22641 4.67117
head 7.88621 3.55339 1.827
rclavicle -1.50082e-014 -2.78299e-015
rhumerus -57.0071 27.3155 -109.452
rradius 48.8791
rwrist -27.9381
rhand 1.2489 -63.5824
rfingers 7.12502
rthumb -153.214 -88.2943
lclavicle -1.50082e-014 -2.78299e-015
lhumerus -41.9218 -10.0926 91.4647
lradius 37.3349
lwrist -15.641
lhand -5.14443 -37.1612
lfingers 7.12502
lthumb 20.6546 -8.24022
rfemur -9.87951 2.91176 22.5206
rtibia 30.5854
rfoot -24.3087 -22.905
rtoes 3.22935
lfemur -14.0456 -18.2467 -22.0061
ltibia 33.5855
lfoot -24.9845 13.7387
ltoes -28.0427
4
root 8.57051 15.1044 42.034 -178.535 -8.71221 -178.745
lowerback 6.62981 1.68487 0.699109
upperback -3.52097 2.23661 -0.717784
thorax -7.35713 1.02602 -1.43076
lowerneck -6.70847 6.8866 1.51798
upperneck 22.7029 7.16287 4.82617
head 7.98615 3.52202 1.90285
rclavicle 5.2181e-016 5.96354e-015
rhumerus -57.0174 27.3308 -109.452
rradius 48.9158
rwrist -28.0403
rhand 1.01521 -64.2281
rfingers 7.12502
rthumb -153.438 -87.6145
lclavicle 5.2181e-016 5.96354e-015
lhumerus -41.9979 -10.0083 91.4482
lradius 37.5754
lwrist -14.6958
lhand -3.67244 -36.8394
lfingers 7.12502
lthumb 22.0685 -8.07861
rfemur -10.2337 3.14834 22.4752
rtibia 30.5443
rfoot -24.1841 -22.8011
rtoes 3.40441
lfemur -14.3126 -18.1287 -21.9258
ltibia 33.5509
lfoot -24.9631 13.7947
ltoes -27.5852
5
root 8.57285 15.1116 42.0335 -178.274 -8.42162 -178.728
lowerback 6.34779 1.75879 0.611453
upperback -3.5625 2.32249 -0.714695
thorax -7.23932 1.07233 -1.37955
lowerneck -6.84663 6.85514 1.6717
upperneck 22.8529 7.12444 4.62539
head 8.07805 3.49608 1.81882
rclavicle 1.95927e-014 -1.59028e-015
rhumerus -57.0024 27.3315 -109.429
rradius 48.9515
rwrist -28.0345
rhand -0.100756 -64.7648
rfingers 7.12502
rthumb -154.506 -86.9207
lclavicle 1.95927e-014 -1.59028e-015
lhumerus -42.1773 -10.1325 91.5362
lradius 37.499
lwrist -15.1856
lhand -4.86753 -36.9225
lfingers 7.12502
lthumb 20.9207 -8.03062
rfemur -10.5429 3.4102 22.4716
rtibia 30.5415
rfoot -24.1482 -22.5455
rtoes 3.97305
lfemur -14.5462 -17.9408 -21.817
ltibia 33.5146
lfoot -25.0579 13.7964
ltoes -26.7043
6
root 8.57738 15.1192 42.0314 -177.817 -7.85866 -178.77
lowerback 5.86469 1.91555 0.375522
upperback -3.66611 2.50105 -0.716091
thorax -7.07565 1.16968 -1.25399
lowerneck -6.95669 6.83387 1.84233
upperneck 22.9888 7.11126 4.36968
head 8.16277 3.47792 1.71441
rclavicle 2.82771e-014 -1.27222e-014
rhumerus -56.956 27.2833 -109.367
rradius 48.9318
rwrist -27.8371
rhand -1.49386 -64.4724
rfingers 7.12502
rthumb -155.841 -87.029
lclavicle 2.82771e-014 -1.27222e-014
lhumerus -42.2454 -10.0954 91.5272
lradius 37.4161
lwrist -15.3961
lhand -4.85703 -36.951
lfingers 7.12502
lthumb 20.9308 -8.06029
rfemur -11.1016 3.81689 22.3742
rtibia 30.5377
rfoot -24.0256 -22.2259
rtoes 3.68442
lfemur -14.9933 -17.4464 -21.725
ltibia 33.5021
lfoot -25.0126 14.0269
ltoes -27.7208
7
root 8.57569 15.1178 42.0316 -177.831 -7.71487 -178.755
lowerback 5.9146 1.93378 0.384534
upperback -3.68734 2.52527 -0.724588
thorax -7.12588 1.1801 -1.27332
lowerneck -7.06069 6.8285 1.85723
upperneck 23.2016 7.07531 4.36801
head 8.25498 3.45548 1.71737
rclavicle -1.17159e-014 -1.19271e-015
rhumerus -56.9442 27.169 -109.317
rradius 48.9125
rwrist -27.6927
rhand -1.81453 -64.4249
rfingers 7.12502
rthumb -156.149 -87.0359
lclavicle -1.17159e-014 -1.19271e-015
lhumerus -42.3641 -10.1158 91.5519
lradius 37.4989
lwrist -15.0037
lhand -4.18651 -36.8762
lfingers 7.12502
lthumb 21.5749 -8.05798
rfemur -11.1154 3.8535 22.3716
rtibia 30.5101
rfoot -23.9745 -22.1762
rtoes 3.08124
lfemur -14.9909 -17.2863 -21.7156
ltibia 33.5252
lfoot -25.0014 14.1599
ltoes -29.1162
8
root 8.57415 15.1187 42.0321 -177.886 -7.64062 -178.581
lowerback 6.01311 1.93645 0.59029
upperback -3.72126 2.5504 -0.690701
thorax -7.21111 1.18229 -1.36084
lowerneck -7.16272 6.78931 1.70419
upperneck 23.4346 6.9627 4.58789
head 8.33811 3.40154 1.81357
rclavicle 3.12713e-014 9.14409e-015
rhumerus -57.0112 27.1806 -109.344
rradius 48.9796
rwrist -27.7607
rhand -1.67896 -64.6754
rfingers 7.12502
rthumb -156.019 -86.8025
lclavicle 3.12713e-014 9.14409e-015
lhumerus -42.553 -10.1859 91.5942
lradius 37.7277
lwrist -14.4487
lhand -3.24495 -36.7568
lfingers 7.12502
lthumb 22.4789 -8.0451
rfemur -11.084 3.79682 22.5632
rtibia 30.4696
rfoot -23.8779 -22.1483
rtoes 3.14598
lfemur -14.9733 -17.3128 -21.5355
ltibia 33.5729
lfoot -25.0451 14.2551
ltoes -29.4965
9
root 8.57285 15.1203 42.0298 -177.912 -7.68976 -178.491
lowerback 5.99481 1.87337 0.719531
upperback -3.72522 2.47915 -0.668746
thorax -7.20199 1.14162 -1.40101
lowerneck -7.14242 6.76298 1.53556
upperneck 23.5518 6.89444 4.75072
head 8.36069 3.36271 1.88985
rclavicle 7.90169e-015 -7.55382e-015
rhumerus -57.1101 27.3027 -109.444
rradius 49.0346
rwrist -27.8609
rhand -1.59993 -64.8095
rfingers 7.12502
rthumb -155.943 -86.6784
lclavicle 7.90169e-015 -7.55382e-015
lhumerus -42.7595 -10.1722 91.5838
lradius 37.9219
lwrist -14.1724
lhand -2.58735 -36.8128
lfingers 7.12502
lthumb 23.1099 -8.17875
rfemur -11.0151 3.67824 22.6651
rtibia 30.412
rfoot -23.9491 -22.0067
rtoes 3.92272
lfemur -14.9809 -17.3207 -21.4506
ltibia 33.6266
lfoot -25.0096 14.2275
ltoes -29.9482
10
root 8.5713 15.1172 42.0299 -177.995 -7.48727 -178.495
lowerback 6.08773 1.91129 0.734938
upperback -3.70177 2.53084 -0.705909
thorax -7.2271 1.16559 -1.4579
lowerneck -7.09094 6.78379 1.58601
upperneck 23.5649 6.91837 4.71395
head 8.35915 3.37203 1.86982
rclavicle -2.63514e-014 1.98785e-015
rhumerus -57.1619 27.323 -109.57
rradius 49.0745
rwrist -27.9721
rhand -1.74776 -64.8045
rfingers 7.12502
rthumb -156.085 -86.6647
lclavicle -2.63514e-014 1.98785e-015
lhumerus -43.2477 -10.9152 92.1508
lradius 37.6972
lwrist -16.3304
lhand -8.30759 -36.4634
lfingers 7.12502
lthumb 17.6129 -7.2412
rfemur -10.9442 3.69732 22.6335
rtibia 30.3833
rfoot -23.9462 -21.7812
rtoes 3.84903
lfemur -14.8584 -17.2261 -21.5123
ltibia 33.6455
lfoot -25.1451 14.2582
ltoes -28.9452
11
root 8.57138 15.1155 42.0291 -177.967 -7.32265 -178.51
lowerback 6.13106 1.95503 0.701871
upperback -3.75298 2.58185 -0.746678
thorax -7.3051 1.1891 -1.49133
lowerneck -7.09349 6.78704 1.6619
upperneck 23.6398 6.90721 4.67666
head 8.3905 3.36587 1.8461
rclavicle -2.58544e-014 7.55382e-015
rhumerus -57.2534 27.255 -109.691
rradius 49.129
rwrist -28.0301
rhand -2.12614 -64.6211
rfingers 7.12502
rthumb -156.448 -86.801
lclavicle -2.58544e-014 7.55382e-015
lhumerus -43.1002 -10.3824 91.5888
lradius 38.0204
lwrist -14.2205
lhand -2.63074 -37.046
lfingers 7.12502
lthumb 23.0683 -8.40674
rfemur -11.0183 3.81356 22.6105
rtibia 30.4169
rfoot -23.8254 -21.9465
rtoes 3.00428
lfemur -14.8271 -17.1231 -21.5284
ltibia 33.604
lfoot -25.1387 14.4194
ltoes -25.5823
